<svg width="113" height="41" viewBox="0 0 113 41" fill="none" xmlns="http://www.w3.org/2000/svg">
<path d="M19.6224 23.0801C14.9373 23.0801 11.1436 26.8792 11.1436 31.5672C11.1436 31.9279 11.1706 32.2829 11.2142 32.632C11.7425 36.8126 15.3017 40.046 19.6222 40.046C24.0591 40.046 27.6983 36.635 28.0706 32.2883C28.0859 32.0497 28.1032 31.8112 28.1032 31.5672C28.1034 26.8792 24.3098 23.0801 19.6224 23.0801ZM15.3748 28.3671L17.1053 30.1018C16.9722 30.3307 16.8667 30.5787 16.7948 30.8451H14.359C14.4874 29.92 14.8368 29.0771 15.3748 28.3671ZM14.348 32.3146H16.8058C16.8787 32.5767 16.9778 32.8206 17.117 33.0482L15.3802 34.7827C14.8424 34.0783 14.4818 33.2368 14.348 32.3146ZM18.8917 36.8362C17.9695 36.7087 17.1376 36.3468 16.4279 35.8144L18.1534 34.0895C18.38 34.224 18.6305 34.3168 18.8917 34.3834V36.8362ZM18.8917 28.743C18.6246 28.8149 18.3744 28.9204 18.1415 29.0589L16.4126 27.3286C17.1226 26.7906 17.9641 26.4316 18.8917 26.3039V28.743ZM20.361 26.3039C21.2809 26.4314 22.1247 26.7906 22.8345 27.3286L21.1096 29.0589C20.8767 28.9204 20.6265 28.8149 20.361 28.743V26.3039ZM20.361 36.8362V34.389C20.6208 34.3168 20.865 34.224 21.0923 34.0895L22.8174 35.8144C22.1135 36.3468 21.2753 36.7018 20.361 36.8362ZM23.8709 34.7881L22.1301 33.0482C22.2695 32.8206 22.3803 32.5767 22.4469 32.3146H24.8858C24.7542 33.2309 24.4089 34.0837 23.8709 34.7881ZM22.4511 30.8449C22.3803 30.5785 22.2749 30.3305 22.1413 30.1016L23.8709 28.3669C24.4091 29.0769 24.7639 29.9197 24.886 30.8447H22.4511V30.8449Z" fill="#5D5D5F"/>
<path d="M90.0553 23.0801C85.3742 23.0801 81.5749 26.8792 81.5749 31.5672C81.5749 31.9279 81.6026 32.2829 81.6527 32.632C82.1738 36.8126 85.7346 40.046 90.0553 40.046C94.4978 40.046 98.1361 36.635 98.5021 32.2883C98.5244 32.0497 98.541 31.8112 98.541 31.5672C98.541 26.8792 94.7417 23.0801 90.0553 23.0801ZM85.8124 28.3671L87.5373 30.1018C87.4042 30.3307 87.2987 30.5787 87.2324 30.8451H84.7922C84.9194 29.92 85.2744 29.0771 85.8124 28.3671ZM84.7861 32.3146H87.2432C87.3097 32.5767 87.4152 32.8206 87.5483 33.0482L85.8178 34.7827C85.2784 34.0783 84.9138 33.2368 84.7861 32.3146ZM89.323 36.8362C88.4024 36.7087 87.5705 36.3468 86.8605 35.8144L88.5854 34.0895C88.8129 34.224 89.0625 34.3168 89.323 34.3834V36.8362V36.8362ZM89.323 28.743C89.0568 28.8149 88.8073 28.9204 88.5744 29.0589L86.8439 27.3286C87.5539 26.7906 88.397 26.4316 89.323 26.3039V28.743ZM90.7929 26.3039C91.719 26.4314 92.5621 26.7906 93.2718 27.3286L91.5416 29.0535C91.3087 28.9204 91.0591 28.8096 90.7929 28.743V26.3039ZM90.7929 36.8362V34.389C91.0535 34.3168 91.3033 34.224 91.525 34.0895L93.2554 35.8144C92.5454 36.3468 91.708 36.7018 90.7929 36.8362ZM94.3036 34.7881L92.5675 33.0482C92.7006 32.8206 92.8116 32.5767 92.8836 32.3146H95.3184C95.1909 33.2309 94.8418 34.0837 94.3036 34.7881ZM92.8838 30.8449C92.8172 30.5785 92.7118 30.3305 92.5789 30.1016L94.3092 28.3669C94.8418 29.0769 95.1966 29.9197 95.3243 30.8447H92.8838V30.8449Z" fill="#5D5D5F"/>
<path d="M110.427 18.6929V12.4145C110.427 11.4066 109.689 10.5455 108.696 10.3902C106.3 10.0185 102.057 9.30854 100.155 8.72062C97.4207 7.87753 86.8605 3.40713 83.2055 2.56989C79.545 1.73219 63.0559 -2.75462 47.2602 2.72502C44.5918 3.65264 32.5689 9.39734 25.4966 12.3868C23.4168 12.4311 2.80759 16.7253 1.70865 19.6691C0.611057 22.6143 0.267302 24.0464 0.0669834 24.7937C-0.138955 25.5386 0.0669833 29.1144 1.59781 31.6046C3.15696 32.4919 6.16241 33.0801 9.63437 33.4794C9.59547 33.2685 9.55186 33.0592 9.52331 32.8469C9.46777 32.3881 9.43517 31.9649 9.43517 31.5672C9.43517 25.9489 14.0038 21.3773 19.6224 21.3773C25.241 21.3773 29.8116 25.9489 29.8116 31.5672C29.8116 31.8557 29.7887 32.1428 29.7671 32.4254C29.7179 33.0535 29.6017 33.6678 29.4393 34.2557H29.4623L80.0274 33.2368C80.0052 33.1093 79.9775 32.9816 79.9609 32.8472C79.9 32.3883 79.8721 31.9652 79.8721 31.5675C79.8721 25.9545 84.4421 21.3845 90.055 21.3845C95.6734 21.3845 100.243 25.9545 100.243 31.5675C100.243 31.5884 100.243 31.6048 100.243 31.6284L100.46 31.6104L109.101 29.9811C109.101 29.9811 112.412 28.2216 112.412 23.3686C112.412 20.1363 110.427 18.6929 110.427 18.6929ZM60.2663 12.7418L41.382 13.3187C41.7314 10.49 40.0558 9.85216 40.0558 9.85216C47.5599 3.04134 62.6901 2.80843 62.6901 2.80843L60.2663 12.7418ZM81.4584 11.878L64.2484 12.4536L65.8125 2.80865C74.7031 2.69219 79.7837 4.65715 79.7837 4.65715L82.3238 8.75997L81.4584 11.878ZM91.1589 11.8169H86.367L81.5751 5.23203C85.1692 6.66303 88.0476 8.0774 89.7614 8.9704C90.8039 9.50975 91.3696 10.662 91.1589 11.8169Z" fill="#5D5D5F"/>
</svg>
