<svg width="100" height="30" viewBox="0 0 100 30" fill="none" xmlns="http://www.w3.org/2000/svg">
<path d="M25.4984 22.2734C25.4984 18.2238 22.2156 14.9418 18.1612 14.9418C14.1104 14.9418 10.8278 18.2238 10.8278 22.2734C10.8278 22.5886 10.853 22.8954 10.8918 23.196C11.3452 26.8132 14.4258 29.6122 18.1612 29.6122C22.0002 29.6122 25.1442 26.6604 25.4646 22.9002C25.4836 22.692 25.4984 22.4852 25.4984 22.2734ZM14.4886 19.5098L15.9874 21.0078C15.8692 21.21 15.7804 21.4218 15.7212 21.6536H13.6122C13.7206 20.854 14.026 20.1246 14.4886 19.5098ZM13.6072 22.925H15.7312C15.791 23.1466 15.8742 23.3634 15.9924 23.5556L14.4938 25.0574C14.031 24.4478 13.7156 23.7184 13.6072 22.925ZM17.5304 26.8328C16.737 26.7244 16.0114 26.409 15.401 25.9508L16.8898 24.4574C17.0864 24.5708 17.3032 24.6546 17.5304 24.7136V26.8328ZM17.5304 19.835C17.2982 19.8942 17.0814 19.988 16.8794 20.106L15.3856 18.6128C15.998 18.1496 16.7266 17.8392 17.5304 17.7256V19.835V19.835ZM18.7958 17.7258C19.5996 17.8392 20.3284 18.1448 20.9408 18.613L19.447 20.1062C19.245 19.988 19.0282 19.8942 18.796 19.8352V17.7258H18.7958ZM18.7958 26.8328V24.7136C19.023 24.6546 19.24 24.5708 19.4314 24.4574L20.9252 25.9508C20.3148 26.409 19.5892 26.7196 18.7958 26.8328ZM21.8376 25.0626L20.3338 23.5558C20.4472 23.3588 20.5458 23.1516 20.6048 22.9252H22.714C22.6008 23.7184 22.3002 24.4526 21.8376 25.0626ZM20.605 21.6536C20.5458 21.422 20.4572 21.21 20.3388 21.0078L21.8376 19.5098C22.3002 20.1246 22.6058 20.854 22.7142 21.6536H20.605V21.6536Z" fill="#5D5D5F"/>
<path d="M77.8336 14.9417C73.7828 14.9417 70.5008 18.2237 70.5008 22.2733C70.5008 22.5885 70.5254 22.8952 70.5648 23.1958C71.0182 26.813 74.0982 29.6121 77.8336 29.6121C81.6724 29.6121 84.8166 26.6602 85.137 22.9C85.1516 22.6918 85.1664 22.4851 85.1664 22.2781C85.1716 18.2239 81.8844 14.9417 77.8336 14.9417ZM74.1624 19.5099L75.6556 21.0078C75.5424 21.21 75.4534 21.4218 75.3894 21.6536H73.2852C73.3936 20.854 73.6992 20.1247 74.1624 19.5099ZM73.2752 22.925H75.3992C75.4632 23.1466 75.547 23.3634 75.6652 23.5556L74.1672 25.0574C73.704 24.4478 73.3888 23.7184 73.2752 22.925ZM77.198 26.8328C76.4046 26.7244 75.6802 26.4091 75.074 25.9509L76.5622 24.4574C76.7594 24.5708 76.9762 24.6546 77.198 24.7136V26.8328V26.8328ZM77.198 19.835C76.9666 19.8942 76.7544 19.9881 76.5524 20.1061L75.0592 18.6129C75.6704 18.1497 76.3996 17.8392 77.1978 17.7256V19.835H77.198ZM78.4694 17.7259C79.2676 17.8393 79.9972 18.1448 80.613 18.613L79.12 20.1062C78.9178 19.988 78.701 19.8943 78.4694 19.8353V17.7259V17.7259ZM78.4694 26.8328V24.7136C78.6962 24.6546 78.9078 24.5708 79.1052 24.4574L80.5984 25.9509C79.9872 26.4091 79.2628 26.7196 78.4694 26.8328ZM81.51 25.0626L80.002 23.5558C80.1204 23.3588 80.2188 23.1516 80.278 22.9252H82.3822C82.274 23.7184 81.9732 24.4526 81.51 25.0626ZM80.278 21.6536C80.2188 21.422 80.1302 21.21 80.0118 21.0078L81.51 19.5147C81.9682 20.1247 82.2788 20.8539 82.3872 21.6535H80.278V21.6536Z" fill="#5D5D5F"/>
<path d="M98.4672 13.5666C90.0894 6.33743 80.1004 5.97703 80.1004 5.97703L74.325 4.16423C73.5068 3.90803 72.6346 4.35583 72.3734 5.17443L71.915 6.61263L61.2902 7.41103L61.0734 5.29323C61.0044 4.63223 60.4378 4.13503 59.7724 4.15363L59.0726 4.17403C58.3828 4.18943 57.8358 4.75543 57.8358 5.44063V7.83003L41.8888 8.55443C42.238 7.38703 41.4698 6.65283 41.4698 6.65283L48.0776 3.52303C48.483 3.33643 48.7442 2.93163 48.754 2.48383C48.7626 2.03963 48.5218 1.62563 48.1234 1.41883L47.354 1.01043C46.8268 0.733834 46.2108 0.699833 45.6582 0.911833C43.225 1.84263 36.054 4.66263 28.7354 8.17083C17.9192 8.92903 5.9054 11.0284 3.0126 12.8918C0.124798 14.7544 -0.156802 17.0608 0.0551983 19.446C0.370598 22.9154 2.9874 25.7292 6.4222 26.291L11.158 27.0586H11.3108C10.5514 25.9806 10.0394 24.714 9.8662 23.3282C9.8226 22.9844 9.7936 22.6346 9.7936 22.2786C9.7936 17.6622 13.5476 13.9128 18.1612 13.9128C22.7788 13.9128 26.5326 17.6622 26.5326 22.2786C26.5326 22.5162 26.514 22.7516 26.4988 22.9844C26.375 24.432 25.868 25.7786 25.095 26.922L69.9736 26.4686L70.5896 26.4488C70.0474 25.5076 69.6778 24.4578 69.535 23.328C69.4908 22.9842 69.4612 22.6344 69.4612 22.2784C69.4612 17.662 73.2162 13.9126 77.8338 13.9126C82.4464 13.9126 86.2016 17.662 86.2016 22.2784C86.2016 22.516 86.1868 22.7514 86.167 22.9842C86.0832 24.008 85.8024 24.98 85.3736 25.8622L95.6978 25.458L96.3876 24.6992C98.147 22.7624 99.359 20.402 99.9012 17.8444C100.241 16.2672 99.6894 14.6214 98.4672 13.5666Z" fill="#5D5D5F"/>
</svg>
