<svg width="100" height="31" viewBox="0 0 100 31" fill="none" xmlns="http://www.w3.org/2000/svg">
<path d="M17.1074 15.8131C12.9605 15.8131 9.59933 19.1687 9.59933 23.3157C9.59933 23.6387 9.62313 23.9533 9.66873 24.2639C10.1305 27.9623 13.2799 30.822 17.1074 30.822C21.038 30.822 24.2556 27.8003 24.5798 23.9581C24.6002 23.7467 24.6136 23.5317 24.6136 23.3157C24.6136 19.1687 21.2528 15.8131 17.1074 15.8131ZM13.3423 20.4903L14.8759 22.0171C14.7573 22.2235 14.6645 22.4447 14.6051 22.6815H12.4445C12.5613 21.8599 12.8707 21.1193 13.3423 20.4903ZM12.4397 23.9775H14.6157C14.6748 24.2097 14.7623 24.4297 14.886 24.6321L13.3531 26.1639C12.8757 25.5399 12.5563 24.7931 12.4397 23.9775ZM16.4582 27.9831C15.6432 27.8701 14.9062 27.5507 14.2809 27.0789L15.804 25.5497C16.0068 25.6689 16.2266 25.7513 16.4582 25.8151V27.9831ZM16.4582 20.8183C16.2218 20.8821 16.002 20.9755 15.7956 21.0983L14.2621 19.5653C14.8911 19.0887 15.6384 18.7743 16.4584 18.6613V20.8183H16.4582ZM17.7552 18.6615C18.5762 18.7743 19.3218 19.0889 19.9508 19.5655L18.419 21.0985C18.2114 20.9757 17.9916 20.8823 17.7552 20.8185V18.6615V18.6615ZM17.7552 27.9783V25.8153C17.9862 25.7515 18.2078 25.6691 18.4092 25.5499L19.9374 27.0791C19.3084 27.5507 18.5714 27.8701 17.7552 27.9783ZM20.8654 26.1689L19.3276 24.6321C19.4456 24.4295 19.5438 24.2145 19.6076 23.9775H21.7652C21.6466 24.7931 21.3418 25.5449 20.8654 26.1689ZM19.6076 22.6815C19.5486 22.4445 19.4552 22.2235 19.3326 22.0171L20.8656 20.4903C21.3422 21.1193 21.6518 21.8599 21.7654 22.6815H19.6076Z" fill="#5D5D5F"/>
<path d="M79.1023 15.877C74.9703 15.877 71.6243 19.2228 71.6243 23.3486C71.6243 23.6682 71.6535 23.9824 71.6931 24.292C72.1549 27.9732 75.2895 30.8268 79.1023 30.8268C83.0134 30.8268 86.2166 27.8212 86.541 23.9888C86.5608 23.7774 86.5754 23.565 86.5754 23.3488C86.5754 19.2228 83.2296 15.877 79.1023 15.877ZM75.3535 20.5346L76.8815 22.0578C76.7635 22.264 76.6701 22.4852 76.6113 22.7148H74.4591C74.5723 21.9006 74.8867 21.1586 75.3535 20.5346ZM74.4543 24.012H76.6163C76.6801 24.2382 76.7687 24.4604 76.8867 24.6558L75.3585 26.19C74.8917 25.5658 74.5673 24.8178 74.4543 24.012ZM78.4537 27.9918C77.6431 27.8798 76.9061 27.5654 76.2869 27.0938L77.8053 25.5756C78.0067 25.6876 78.2229 25.7772 78.4537 25.8362V27.9918ZM78.4537 20.8628C78.2179 20.9266 77.9969 21.0164 77.7953 21.1378L76.2723 19.6148C76.8963 19.1432 77.6381 18.8238 78.4537 18.712V20.8628ZM79.746 18.712C80.5666 18.8238 81.3086 19.143 81.9324 19.6148L80.4094 21.1378C80.2032 21.0164 79.982 20.9216 79.7462 20.8628V18.712H79.746ZM79.746 27.9918V25.8362C79.9768 25.7772 80.198 25.6876 80.3946 25.5708L81.9176 27.0938C81.2936 27.5606 80.5568 27.88 79.746 27.9918ZM82.8464 26.1898L81.3086 24.6556C81.4314 24.4542 81.5296 24.243 81.5886 24.0118H83.7356C83.6226 24.8178 83.3178 25.5658 82.8464 26.1898ZM81.5934 22.7148C81.5296 22.4802 81.441 22.264 81.3182 22.0578L82.8464 20.5346C83.3178 21.1586 83.6274 21.9006 83.7406 22.7148H81.5934V22.7148Z" fill="#5D5D5F"/>
<path d="M99.969 18.1357C99.9444 17.1433 99.6348 16.1803 99.0846 15.3561L98.6768 14.7567L96.908 10.0885C96.5788 9.2091 95.763 8.5953 94.8248 8.5163C93.0904 8.3739 90.1326 8.1471 87.3174 8.0447C77.4613 2.81208 59.2381 -2.45073 43.785 3.28368C40.6116 4.45729 31.5516 9.0617 31.5516 9.0617C31.5516 9.0617 16.8419 8.6931 6.35152 12.4317C2.2151 13.9057 -0.390105 18.0143 0.0476966 22.3811C0.130697 23.2569 0.263897 24.0319 0.387298 24.6607C0.588098 25.6533 1.4087 26.4014 2.4159 26.5144L8.94512 27.2306C8.53292 26.3705 8.24372 25.4421 8.12032 24.4545C8.06612 24.0527 8.04212 23.6793 8.04212 23.3159C8.04212 18.3179 12.1097 14.2557 17.1071 14.2557C22.1032 14.2557 26.1722 18.3179 26.1722 23.3159C26.1722 23.5811 26.1568 23.8367 26.1316 24.0921C26.0388 25.2113 25.7294 26.2724 25.2576 27.2464H70.5875L70.9509 27.2206C70.5479 26.3754 70.2679 25.4579 70.1453 24.4837C70.0911 24.0809 70.0665 23.7075 70.0665 23.3487C70.0665 18.3715 74.1201 14.3183 79.0971 14.3183C84.0791 14.3183 88.1326 18.3667 88.1326 23.3487C88.1326 23.6093 88.118 23.8647 88.0934 24.1201C88.0344 24.8571 87.8724 25.5659 87.6364 26.2438L88.6584 26.1835L95.6844 25.2561C96.9028 25.0939 97.9838 24.3717 98.5978 23.3055L99.3004 22.1017C99.782 21.2665 100.023 20.3121 99.9982 19.3489L99.969 18.1357ZM75.0931 9.1451H40.7198C40.7198 9.1451 40.9262 8.3295 40.027 7.3461C40.027 7.3461 48.8126 1.68108 62.3823 3.09608C66.1165 3.48488 70.6809 3.75029 76.8911 6.97749L75.0931 9.1451Z" fill="#5D5D5F"/>
</svg>
