<svg width="100" height="39" viewBox="0 0 100 39" fill="none" xmlns="http://www.w3.org/2000/svg">
<path d="M15.9906 23.1362C11.6266 23.1362 8.09277 26.67 8.09277 31.0352C8.09277 31.3762 8.11697 31.7072 8.16137 32.0334C8.65057 35.9228 11.967 38.9376 15.9906 38.9376C20.1266 38.9376 23.517 35.7596 23.8572 31.712C23.8778 31.4898 23.8926 31.261 23.8926 31.035C23.8926 26.67 20.3538 23.1362 15.9906 23.1362ZM12.0312 28.0598L13.6474 29.6712C13.5194 29.8874 13.4194 30.1208 13.3614 30.3668H11.0878C11.2052 29.5078 11.537 28.7222 12.0312 28.0598ZM11.0822 31.7308H13.365C13.4292 31.9792 13.528 32.2102 13.6522 32.4178L12.0368 34.0352C11.5418 33.3778 11.2016 32.5918 11.0822 31.7308ZM15.3084 35.9466C14.4528 35.8292 13.6726 35.493 13.0146 34.9938L14.6214 33.3876C14.834 33.5112 15.065 33.6052 15.3084 33.6644V35.9466V35.9466ZM15.3084 28.4096C15.055 28.475 14.8234 28.5726 14.606 28.7024L12.9992 27.0898C13.662 26.587 14.443 26.2546 15.3084 26.1372V28.4096V28.4096ZM16.6776 26.1374C17.5362 26.2548 18.3222 26.5872 18.985 27.09L17.3732 28.7026C17.157 28.573 16.9242 28.4752 16.6776 28.4098V26.1374V26.1374ZM16.6776 35.9428V33.6642C16.9192 33.6 17.152 33.511 17.359 33.3874L18.9702 34.9936C18.3078 35.4882 17.5312 35.8242 16.6776 35.9428ZM19.9492 34.04L18.327 32.4178C18.4562 32.2052 18.56 31.9794 18.6242 31.7308H20.8932C20.769 32.5918 20.4478 33.3828 19.9492 34.04ZM18.6242 30.3666C18.56 30.1208 18.461 29.8874 18.3376 29.671L19.9494 28.0596C20.448 28.722 20.779 29.5076 20.8984 30.3664H18.6242V30.3666Z" fill="#5D5D5F"/>
<path d="M82.4974 23.1362C78.1382 23.1362 74.5998 26.67 74.5998 31.0352C74.5998 31.3762 74.6244 31.7072 74.669 32.0334C75.1582 35.9228 78.4744 38.9376 82.4976 38.9376C86.6342 38.9376 90.0246 35.7596 90.3656 31.712C90.3854 31.4898 90.4002 31.261 90.4002 31.035C90.4 26.67 86.8614 23.1362 82.4974 23.1362ZM78.5386 28.0598L80.1546 29.6712C80.0262 29.8874 79.9272 30.1208 79.868 30.3668H77.5946C77.7132 29.5078 78.0446 28.7222 78.5386 28.0598ZM77.5898 31.7308H79.873C79.9372 31.9792 80.036 32.2102 80.1598 32.4178L78.5438 34.0352C78.0494 33.3778 77.7084 32.5918 77.5898 31.7308ZM81.8154 35.9466C80.9604 35.8292 80.1794 35.493 79.5222 34.9938L81.1284 33.3876C81.341 33.5112 81.5732 33.6052 81.8154 33.6644V35.9466ZM81.8154 28.4096C81.5684 28.475 81.331 28.5726 81.1186 28.7024L79.5074 27.0898C80.1696 26.587 80.9554 26.2546 81.8154 26.1372V28.4096V28.4096ZM83.1844 26.1374C84.0444 26.2548 84.8302 26.5872 85.4924 27.09L83.8812 28.7026C83.6636 28.573 83.4314 28.4752 83.1844 28.4098V26.1374V26.1374ZM83.1844 35.9428V33.6642C83.4266 33.6 83.6588 33.511 83.8664 33.3874L85.4776 34.9936C84.8152 35.4882 84.0394 35.8242 83.1844 35.9428ZM86.4562 34.04L84.8352 32.4178C84.9638 32.2052 85.0674 31.9794 85.1316 31.7308H87.4C87.2766 32.5918 86.9552 33.3828 86.4562 34.04ZM85.1316 30.3666C85.0674 30.1208 84.9734 29.8874 84.8448 29.671L86.4562 28.0596C86.9552 28.722 87.2862 29.5076 87.405 30.3664H85.1316V30.3666Z" fill="#5D5D5F"/>
<path d="M99.3206 20.6268L97.8034 19.1738V14.596C97.8082 13.3956 97.3636 12.2392 96.5578 11.3496L90.9436 5.13281C90.9188 3.83801 89.9896 2.74521 88.7196 2.50841C82.0476 1.25801 61.3398 -1.98399 44.9556 2.41461C34.829 5.13781 24.5356 10.6132 24.5356 10.6132C24.5356 10.6132 6.65958 12.8872 2.37898 18.472C0.886583 20.4144 0.258783 22.9694 0.0307827 25.2678C-0.285617 28.4802 1.82978 31.4146 4.97918 32.1276L6.62858 32.4984C6.61858 32.4094 6.59458 32.3192 6.58458 32.2266C6.53038 31.8064 6.50118 31.4148 6.50118 31.0356C6.50118 25.8066 10.7608 21.5464 15.9904 21.5464C21.223 21.5464 25.4844 25.8068 25.4844 31.0356C25.4844 31.3072 25.464 31.573 25.4386 31.8448C25.4144 32.1672 25.37 32.4836 25.3106 32.7936L73.2058 32.8926C73.1662 32.6714 73.1218 32.454 73.0922 32.2266C73.0378 31.8064 73.0082 31.4148 73.0082 31.0356C73.0082 25.8066 77.2684 21.5464 82.4972 21.5464C87.731 21.5464 91.9912 25.8068 91.9912 31.0356C91.9912 31.3072 91.9714 31.573 91.9466 31.8448C91.917 32.2106 91.8578 32.5726 91.7838 32.9332H92.4362L95.1644 31.4406C98.006 29.884 99.8198 26.9482 99.9434 23.7112L99.9978 22.2926C100.023 21.6684 99.7754 21.0618 99.3206 20.6268ZM33.9548 11.2564L34.6862 8.32501C34.6862 8.32501 45.782 2.52341 64.3494 3.15601V11.8092L34.6114 14.1524C34.6116 14.1526 34.7698 12.2986 33.9548 11.2564ZM81.603 10.4452L67.6214 11.5474V3.33341C72.2176 3.67001 77.2142 4.39661 82.5766 5.69081C83.1202 5.82001 83.5552 6.22441 83.7282 6.75341C83.8998 7.28701 83.7874 7.87021 83.4266 8.29541L81.603 10.4452Z" fill="#5D5D5F"/>
</svg>
