<svg width="95" height="41" viewBox="0 0 95 41" fill="none" xmlns="http://www.w3.org/2000/svg">
<path d="M17.7289 25.7844C13.7131 25.8205 10.4916 29.1079 10.5282 33.1238C10.5282 33.435 10.5567 33.7393 10.5987 34.0366C11.0837 37.6176 14.1607 40.3653 17.8681 40.3281C21.6778 40.2896 24.7644 37.3392 25.0438 33.6088C25.063 33.4037 25.0723 33.1984 25.0723 32.9876C25.0356 28.9691 21.7478 25.7472 17.7289 25.7844ZM17.1273 28.5496L17.1448 30.6421C16.9216 30.7027 16.7071 30.7962 16.5065 30.9184L15.0097 29.4486C15.6161 28.9833 16.3348 28.6708 17.1273 28.5496ZM14.1286 30.3482L15.6299 31.8182C15.5133 32.0187 15.4248 32.232 15.3688 32.4618L13.2799 32.4793C13.3826 31.6864 13.6764 30.9602 14.1286 30.3482ZM13.2846 33.7395L15.3929 33.7207C15.4524 33.9445 15.5422 34.1544 15.6628 34.3456L14.1848 35.847C13.7229 35.2454 13.4018 34.5262 13.2846 33.7395ZM15.0944 36.7224L16.558 35.2315C16.7538 35.3434 16.9682 35.4262 17.1915 35.4833L17.2109 37.5768C16.4281 37.479 15.704 37.1759 15.0944 36.7224ZM22.308 32.3965L20.2191 32.4151C20.1585 32.1855 20.0653 31.9768 19.9481 31.7764L21.4163 30.2796C21.883 30.8856 22.1909 31.6038 22.308 32.3965ZM18.3852 28.5403C19.1779 28.6428 19.906 28.9412 20.5173 29.3971L19.0525 30.894C18.852 30.7739 18.6323 30.6889 18.4044 30.6292L18.3852 28.5403ZM18.4703 37.5618L18.4511 35.4683C18.6756 35.4089 18.8894 35.3236 19.0801 35.2036L20.5721 36.6714C19.9707 37.134 19.2578 37.4511 18.4703 37.5618ZM21.4673 35.7864L19.9624 34.3082C20.0731 34.1124 20.1711 33.9026 20.2271 33.673L22.316 33.6553C22.2135 34.4436 21.9197 35.1744 21.4673 35.7864Z" fill="#5D5D5F"/>
<path d="M78.5604 25.7844C74.5456 25.8205 71.319 29.1079 71.356 33.1238C71.3608 33.435 71.3887 33.7393 71.4308 34.0366C71.9159 37.6176 74.9932 40.3653 78.7003 40.3281C82.505 40.2896 85.5966 37.3392 85.8763 33.6088C85.8951 33.4037 85.9043 33.1984 85.9043 32.9876C85.8672 28.9691 82.5798 25.7472 78.5604 25.7844ZM77.9589 28.5496L77.9775 30.6421C77.7491 30.7027 77.5393 30.7962 77.3389 30.9184L75.8419 29.4486C76.4435 28.9833 77.1663 28.6708 77.9589 28.5496ZM74.9606 30.3482L76.4621 31.8182C76.3455 32.0187 76.2568 32.232 76.201 32.4618L74.1119 32.4793C74.2099 31.6864 74.5086 30.9602 74.9606 30.3482ZM74.1168 33.7395L76.2244 33.7207C76.2804 33.9445 76.3736 34.1544 76.4902 34.3456L75.0166 35.847C74.5551 35.2454 74.2332 34.5262 74.1168 33.7395ZM75.9258 36.7224L77.39 35.2315C77.5858 35.3434 77.8004 35.4262 78.0243 35.4833L78.0429 37.5768C77.2548 37.479 76.5322 37.1759 75.9258 36.7224ZM83.1395 32.3965L81.046 32.4151C80.9854 32.1855 80.8967 31.9768 80.7803 31.7764L82.249 30.2796C82.715 30.8856 83.0231 31.6038 83.1395 32.3965ZM79.2178 28.5403C80.0106 28.6428 80.738 28.9412 81.3489 29.3971L79.8847 30.894C79.6842 30.7739 79.465 30.6889 79.2366 30.6292L79.2178 28.5403ZM79.3019 37.5618L79.2831 35.4683C79.5072 35.4089 79.7169 35.3236 79.9126 35.2036L81.4047 36.6714C80.8033 37.134 80.0898 37.4511 79.3019 37.5618ZM82.3001 35.7864L80.794 34.3082C80.9058 34.1124 81.0036 33.9026 81.0597 33.673L83.1486 33.6553C83.0462 34.4436 82.7525 35.1744 82.3001 35.7864Z" fill="#5D5D5F"/>
<path d="M94.1532 29.0344L93.2812 28.7116C93.2812 28.7116 93.2951 7.95355 88.7441 1.69133C87.9748 0.622938 54.2667 -1.47074 42.0121 3.49065C36.9772 5.53306 21.5606 15.9407 21.5606 15.9407C21.5606 15.9407 8.51959 17.969 4.44429 20.4784C2.62977 21.8992 1.53403 24.8325 1.53403 24.8325L0.42823 26.0133C0.154011 26.3112 0 26.703 0 27.1041V29.0811C0 29.5939 0.415506 30.0079 0.927483 30.0079V33.4595C0.760749 33.4595 0.606358 33.5575 0.536284 33.7068C0.471528 33.8559 0.475136 34.0518 0.601611 34.1637C0.97401 34.4795 2.78378 34.7175 4.13607 34.8715C5.38108 35.016 9.41973 35.4169 9.41973 35.4169C9.31206 35.0298 9.21919 34.6394 9.1626 34.2326C9.10677 33.842 9.0781 33.4819 9.0781 33.1367C9.03138 28.3305 12.9063 24.3799 17.7143 24.3332C22.5631 24.3332 26.4811 28.2082 26.5225 32.9747C26.5225 33.2254 26.5132 33.4772 26.494 33.7243C26.4526 34.2571 26.3594 34.7687 26.2293 35.2723L70.088 34.7465C70.0554 34.5727 70.018 34.406 69.9948 34.2324C69.9388 33.8418 69.9109 33.4818 69.9109 33.1365C69.8643 28.3303 73.7391 24.3797 78.5467 24.333C83.396 24.333 87.3082 28.208 87.3549 32.9745C87.3549 33.2252 87.3409 33.477 87.3223 33.7241C87.3035 33.9911 87.2708 34.2569 87.2243 34.5181L92.8477 34.0423C93.8549 33.9537 94.6521 33.1703 94.7501 32.1726L94.9461 30.2969C94.9972 29.7468 94.6755 29.2257 94.1532 29.0344ZM49.4874 15.2878C49.4128 15.7546 49.0072 16.095 48.536 16.095H34.5708V14.4904C34.5708 13.4505 33.8438 12.5553 32.8267 12.3409L32.9568 10.7373C32.9568 10.7373 39.2703 5.86463 49.935 5.7015C50.2193 5.69618 50.4899 5.8181 50.681 6.03668C50.8629 6.25165 50.9468 6.5403 50.9001 6.82002L49.4874 15.2878Z" fill="#5D5D5F"/>
</svg>
