<svg width="100" height="35" viewBox="0 0 100 35" fill="none" xmlns="http://www.w3.org/2000/svg">
<path d="M99.0964 19.9855L98.4092 19.8777C98.6546 10.5076 97.1872 8.61797 95.538 2.8804H96.446C96.873 2.8804 97.2216 2.5312 97.2216 2.1006V1.2074C97.2216 0.779805 96.873 0.432007 96.446 0.432007H41.333C40.5238 0.432007 39.7288 0.646806 39.036 1.0604L22.3339 10.925C22.3339 10.925 5.61299 11.6024 3.0214 14.1644C1.71041 15.4605 0.52821 18.0179 0.0962122 20.9675C-0.336386 23.9173 0.793209 27.0633 1.43181 27.7407C2.0734 28.4179 3.1054 28.7419 3.1054 28.7419L3.5122 29.5175C3.7772 30.0133 4.29739 30.3223 4.86199 30.3075L7.54678 30.2439V22.8229C7.54678 19.9467 9.88297 17.6105 12.764 17.6105H19.9003C22.4237 17.6105 24.4705 19.6523 24.4705 22.1799V29.8317H24.5925L68.2299 29.1593L68.8581 29.2231V22.8229C68.8581 19.9467 71.1945 17.6105 74.0755 17.6105H81.2119C83.7395 17.6105 85.7813 19.6523 85.7813 22.1799V30.5483L91.8034 29.2673C92.1224 29.1985 92.3922 28.9925 92.5396 28.6979L92.9766 27.8243L99.0674 27.0243C99.6024 26.9555 100 26.4991 100 25.9641V21.0461C99.9996 20.5157 99.6166 20.0691 99.0964 19.9855ZM46.673 11.4058C46.541 11.5482 46.3502 11.6322 46.1528 11.6322H32.8619C32.8619 11.6322 33.6779 11.2152 34.1049 10.6156C34.5307 10.0174 34.2957 8.60757 33.8147 8.13257C33.3723 7.69518 32.4841 7.39638 32.4841 7.39638L39.1748 3.28279C39.6018 3.0178 40.092 2.8754 40.597 2.8754H46.2512C46.4432 2.8754 46.6242 2.9534 46.7574 3.0864C46.8892 3.2238 46.9634 3.406 46.9586 3.59199L46.8604 10.8754C46.8754 11.0714 46.806 11.264 46.673 11.4058ZM63.3708 10.8168C62.9242 11.3568 62.2616 11.6812 61.5548 11.6948L50.919 11.9262C50.7276 11.931 50.5408 11.8568 50.4084 11.725C50.2708 11.5918 50.1924 11.411 50.1924 11.2202V3.58179C50.1924 3.1946 50.5116 2.8806 50.8992 2.8806H62.7079C63.0711 2.8806 63.3755 3.156 63.4099 3.52419L63.8859 8.87277C64.0039 9.56517 63.8123 10.2776 63.3708 10.8168ZM94.8412 10.8218C94.7822 10.9298 94.6694 10.9936 94.5466 10.9936L72.9315 11.1562C71.9941 11.161 71.1255 10.685 70.6199 9.89417L68.3573 3.83339C68.2739 3.61739 68.3033 3.37079 68.4359 3.1848C68.5683 2.994 68.7843 2.8806 69.0151 2.8806H91.8816C92.1858 2.8806 92.4558 3.077 92.554 3.3672L94.8508 10.479C94.91 10.5868 94.9048 10.7186 94.8412 10.8218Z" fill="#5D5D5F"/>
<path d="M16.0081 19.1167C11.7485 19.1167 8.29315 22.5671 8.29315 26.8275C8.29315 27.1563 8.32195 27.4803 8.36055 27.7943C8.84215 31.598 12.0759 34.538 16.0023 34.538C20.0471 34.538 23.3503 31.441 23.6883 27.4851C23.7087 27.2643 23.7233 27.0481 23.7233 26.8275C23.7235 22.5671 20.2683 19.1167 16.0081 19.1167ZM12.1455 23.9219L13.7209 25.4925C13.5927 25.7037 13.4951 25.9343 13.4411 26.1747H11.2233C11.3349 25.3305 11.6541 24.5649 12.1455 23.9219ZM11.2129 27.5097H13.4459C13.5097 27.7453 13.6031 27.9711 13.7257 28.1771L12.1503 29.7527C11.6643 29.1147 11.3313 28.3441 11.2129 27.5097ZM15.3405 31.6176C14.5061 31.5048 13.7447 31.1758 13.1029 30.6951L14.6737 29.1243C14.8743 29.2421 15.1043 29.3305 15.3405 29.3943V31.6176ZM15.3405 24.2605C15.1007 24.3243 14.8695 24.4225 14.6583 24.5453L13.0877 22.9745C13.7313 22.4837 14.4963 22.1599 15.3355 22.0421V24.2605H15.3405ZM16.6749 22.0421C17.5191 22.1599 18.2861 22.4837 18.9277 22.9745L17.3571 24.5453C17.1461 24.4225 16.9161 24.3245 16.6711 24.2655V22.0423H16.6749V22.0421ZM16.6749 31.6176V29.3943C16.9111 29.3307 17.1375 29.2421 17.3485 29.1195L18.9143 30.6951C18.2707 31.1758 17.5105 31.5048 16.6749 31.6176ZM19.8701 29.7577L18.2909 28.1773C18.4123 27.9713 18.5155 27.7503 18.5749 27.5099H20.7933C20.6757 28.3441 20.3615 29.1195 19.8701 29.7577ZM18.5749 26.1747C18.5155 25.9343 18.4227 25.7037 18.2995 25.4925L19.8701 23.9219C20.3617 24.5649 20.6807 25.3305 20.7991 26.1747H18.5749Z" fill="#5D5D5F"/>
<path d="M77.3195 19.1167C73.0593 19.1167 69.6041 22.5671 69.6041 26.8275C69.6041 27.1563 69.6335 27.4803 69.6729 27.7943C70.1537 31.598 73.3883 34.538 77.3195 34.538C81.3589 34.538 84.6669 31.441 85.0007 27.4851C85.0203 27.2643 85.0351 27.0481 85.0351 26.8275C85.0351 22.5671 81.5847 19.1167 77.3195 19.1167ZM73.4567 23.9219L75.0323 25.4925C74.9045 25.7037 74.8115 25.9343 74.7527 26.1747H72.5341C72.6469 25.3305 72.9709 24.5649 73.4567 23.9219ZM72.5243 27.5097H74.7575C74.8211 27.7453 74.9145 27.9711 75.0371 28.1771L73.4615 29.7527C72.9759 29.1147 72.6421 28.3441 72.5243 27.5097ZM76.6519 31.6176C75.8175 31.5048 75.0569 31.1758 74.4141 30.6951L75.9847 29.1243C76.1859 29.2421 76.4165 29.3305 76.6521 29.3943V31.6176H76.6519ZM76.6519 24.2605C76.4115 24.3243 76.1809 24.4225 75.9699 24.5453L74.3991 22.9745C75.0421 22.4837 75.8077 22.1599 76.6519 22.0421V24.2605ZM77.9871 22.0421C78.8313 22.1599 79.5969 22.4837 80.2447 22.9745L78.6693 24.5453C78.4631 24.4225 78.2323 24.3245 77.9871 24.2655V22.0421ZM77.9871 31.6176V29.3943C78.2227 29.3307 78.4533 29.2421 78.6593 29.1195L80.2251 30.6951C79.5821 31.1758 78.8263 31.5048 77.9871 31.6176ZM81.1821 29.7577L79.6017 28.1773C79.7245 27.9713 79.8275 27.7503 79.8913 27.5099H82.1047C81.9871 28.3441 81.6729 29.1195 81.1821 29.7577ZM79.8913 26.1747C79.8323 25.9343 79.7343 25.7037 79.6117 25.4925L81.1871 23.9219C81.6731 24.5649 81.9969 25.3305 82.1097 26.1747H79.8913Z" fill="#5D5D5F"/>
</svg>
