<svg width="100" height="34" viewBox="0 0 100 34" fill="none" xmlns="http://www.w3.org/2000/svg">
<path d="M17.9193 17.5325C13.5282 17.5325 9.96277 21.0931 9.96277 25.4895C9.96277 25.8339 9.98797 26.1633 10.0316 26.4929C10.5276 30.4173 13.8682 33.4517 17.9191 33.4517C22.0901 33.4517 25.5031 30.2501 25.8467 26.1683C25.8671 25.9421 25.8823 25.7209 25.8823 25.4895C25.8827 21.0931 22.3171 17.5325 17.9193 17.5325ZM13.936 22.4947L15.5588 24.1175C15.4316 24.3339 15.3338 24.5701 15.2694 24.8159H12.9818C13.0998 23.9503 13.43 23.1585 13.936 22.4947ZM12.9732 26.1929H15.2796C15.3436 26.4387 15.442 26.6747 15.5692 26.8863L13.9412 28.5143C13.4398 27.8501 13.095 27.0583 12.9732 26.1929ZM17.2321 30.4371C16.3708 30.3191 15.584 29.9797 14.9244 29.4829L16.5435 27.8601C16.7549 27.9879 16.9855 28.0765 17.2321 28.1403V30.4371ZM17.2321 22.8439C16.9799 22.9077 16.7501 23.0111 16.5281 23.1389L14.9102 21.5161C15.574 21.0097 16.3658 20.6751 17.2319 20.5523V22.8439H17.2321ZM18.6133 20.5521C19.4795 20.6749 20.2713 21.0095 20.9395 21.5159L19.3167 23.1387C19.1003 23.0109 18.8635 22.9077 18.6133 22.8437V20.5521ZM18.6133 30.4371V28.1405C18.8587 28.0767 19.0903 27.9831 19.3017 27.8603L20.9197 29.4831C20.2609 29.9797 19.4741 30.3191 18.6133 30.4371ZM21.9077 28.5141L20.2749 26.8861C20.4033 26.6697 20.5067 26.4435 20.5755 26.1927H22.8623C22.7389 27.0583 22.4155 27.8551 21.9077 28.5141ZM20.5755 24.8159C20.5115 24.5701 20.4133 24.3339 20.2847 24.1175L21.9075 22.4947C22.4153 23.1585 22.7437 23.9503 22.8621 24.8159H20.5755Z" fill="#5D5D5F"/>
<path d="M75.2968 17.5325C70.9002 17.5325 67.3346 21.0931 67.3346 25.4895C67.3346 25.8339 67.364 26.1633 67.4036 26.4929C67.8954 30.4173 71.2396 33.4517 75.2968 33.4517C79.4622 33.4517 82.8754 30.2501 83.2194 26.1683C83.2392 25.9421 83.254 25.7209 83.254 25.4895C83.254 21.0931 79.6936 17.5325 75.2968 17.5325ZM71.3084 22.4947L72.9314 24.1175C72.8034 24.3339 72.705 24.5701 72.6412 24.8159H70.3544C70.4724 23.9503 70.8068 23.1585 71.3084 22.4947ZM70.3494 26.1929H72.651C72.715 26.4387 72.8134 26.6747 72.9412 26.8863L71.3134 28.5143C70.8118 27.8501 70.4676 27.0583 70.3494 26.1929ZM74.6036 30.4371C73.7428 30.3191 72.961 29.9797 72.2972 29.4829L73.9152 27.8601C74.1266 27.9879 74.3626 28.0765 74.6036 28.1403V30.4371ZM74.6036 22.8439C74.3526 22.9077 74.1216 23.0111 73.9002 23.1389L72.2822 21.5161C72.946 21.0097 73.7378 20.6751 74.6084 20.5523V22.8441H74.6036V22.8439ZM75.9804 20.5521C76.851 20.6749 77.6428 21.0095 78.3066 21.5159L76.6886 23.1387C76.4722 23.0109 76.236 22.9077 75.9852 22.8437V20.5519H75.9804V20.5521ZM75.9804 30.4371V28.1405C76.2262 28.0767 76.4622 27.9831 76.6738 27.8603L78.2918 29.4831C77.6328 29.9797 76.8458 30.3191 75.9804 30.4371ZM79.2802 28.5141L77.6476 26.8861C77.7756 26.6697 77.8786 26.4435 77.9476 26.1927H80.2344C80.1116 27.0583 79.787 27.8551 79.2802 28.5141ZM77.9476 24.8159C77.8838 24.5701 77.7852 24.3339 77.6574 24.1175L79.2854 22.4947C79.787 23.1585 80.1164 23.9503 80.2344 24.8159H77.9476Z" fill="#5D5D5F"/>
<path d="M98.7011 19.7897H97.1321L96.7289 10.3523C96.7031 9.77195 96.2223 9.31515 95.6371 9.32015L73.9494 9.51615V1.68217C73.9494 0.949371 73.3592 0.358574 72.6264 0.358574H71.5938C70.8658 0.358574 70.2756 0.949371 70.2756 1.68217V9.55075L67.394 9.57595L66.8184 2.64117C66.6956 1.19097 65.4808 0.0739746 64.025 0.0739746H37.6807C36.7605 0.0739746 35.8801 0.428173 35.2169 1.06737L26.3683 9.55555L9.43677 11.3407C7.09098 11.5861 4.94178 12.7723 3.48179 14.6251L1.74019 16.8339C0.412195 17.6551 -0.251603 19.2239 0.0869963 20.7485L0.608195 23.1191C0.835194 24.1469 1.64219 24.9483 2.66959 25.1699L8.44817 26.4289C8.41437 26.1043 8.38417 25.7845 8.38417 25.4895C8.38417 20.2323 12.6634 15.9537 17.9193 15.9537C23.1821 15.9537 27.4601 20.2323 27.4601 25.4895C27.4601 25.7649 27.4459 26.0305 27.4207 26.3011C27.4157 26.3699 27.4023 26.4387 27.3973 26.5075H65.825C65.7858 26.1485 65.756 25.8093 65.756 25.4895C65.756 20.2323 70.0348 15.9537 75.2968 15.9537C80.5588 15.9537 84.8376 20.2323 84.8376 25.4895C84.8376 25.7649 84.8177 26.0305 84.7981 26.3011C84.7883 26.3699 84.7735 26.4387 84.7687 26.5075H89.6129L93.9997 24.0879H98.7061C99.4191 24.0879 99.9995 23.5077 99.9995 22.7897V21.0831C99.9993 20.3701 99.4191 19.7897 98.7011 19.7897ZM33.3079 10.0719C33.3079 10.0719 33.8679 8.71455 33.3079 7.16115L36.7991 2.83277C37.0019 2.58697 37.3013 2.43997 37.6161 2.43997H48.0673V10.0719H33.3079ZM51.932 10.0719V2.44517H61.4136C61.9792 2.44517 62.4416 2.88717 62.461 3.44717L62.7364 10.0721H51.932V10.0719Z" fill="#5D5D5F"/>
</svg>
