<svg width="50" height="50" viewBox="0 0 50 50" fill="none" xmlns="http://www.w3.org/2000/svg">
<rect width="50" height="50" rx="5" fill="white"/>
<mask id="mask0_89_20" style="mask-type:alpha" maskUnits="userSpaceOnUse" x="13" y="13" width="24" height="24">
<rect x="13" y="13" width="24" height="24" fill="#D9D9D9"/>
</mask>
<g mask="url(#mask0_89_20)">
<path d="M25 25C23.9 25 22.9583 24.6083 22.175 23.825C21.3917 23.0417 21 22.1 21 21C21 19.9 21.3917 18.9583 22.175 18.175C22.9583 17.3917 23.9 17 25 17C26.1 17 27.0417 17.3917 27.825 18.175C28.6083 18.9583 29 19.9 29 21C29 22.1 28.6083 23.0417 27.825 23.825C27.0417 24.6083 26.1 25 25 25ZM17 33V30.2C17 29.6333 17.146 29.1123 17.438 28.637C17.7293 28.1623 18.1167 27.8 18.6 27.55C19.6333 27.0333 20.6833 26.6457 21.75 26.387C22.8167 26.129 23.9 26 25 26C26.1 26 27.1833 26.129 28.25 26.387C29.3167 26.6457 30.3667 27.0333 31.4 27.55C31.8833 27.8 32.2707 28.1623 32.562 28.637C32.854 29.1123 33 29.6333 33 30.2V33H17ZM19 31H31V30.2C31 30.0167 30.9543 29.85 30.863 29.7C30.771 29.55 30.65 29.4333 30.5 29.35C29.6 28.9 28.6917 28.5623 27.775 28.337C26.8583 28.1123 25.9333 28 25 28C24.0667 28 23.1417 28.1123 22.225 28.337C21.3083 28.5623 20.4 28.9 19.5 29.35C19.35 29.4333 19.2293 29.55 19.138 29.7C19.046 29.85 19 30.0167 19 30.2V31ZM25 23C25.55 23 26.021 22.804 26.413 22.412C26.8043 22.0207 27 21.55 27 21C27 20.45 26.8043 19.9793 26.413 19.588C26.021 19.196 25.55 19 25 19C24.45 19 23.9793 19.196 23.588 19.588C23.196 19.9793 23 20.45 23 21C23 21.55 23.196 22.0207 23.588 22.412C23.9793 22.804 24.45 23 25 23Z" fill="black"/>
</g>
</svg>
