<svg width="50" height="50" viewBox="0 0 50 50" fill="none" xmlns="http://www.w3.org/2000/svg">
<rect width="50" height="50" rx="5" fill="white"/>
<mask id="mask0_89_25" style="mask-type:alpha" maskUnits="userSpaceOnUse" x="13" y="13" width="24" height="24">
<rect x="13" y="13" width="24" height="24" fill="#D9D9D9"/>
</mask>
<g mask="url(#mask0_89_25)">
<path d="M32.6 34L26.3 27.7C25.8 28.1 25.225 28.4167 24.575 28.65C23.925 28.8833 23.2333 29 22.5 29C20.6833 29 19.146 28.371 17.888 27.113C16.6293 25.8543 16 24.3167 16 22.5C16 20.6833 16.6293 19.1457 17.888 17.887C19.146 16.629 20.6833 16 22.5 16C24.3167 16 25.8543 16.629 27.113 17.887C28.371 19.1457 29 20.6833 29 22.5C29 23.2333 28.8833 23.925 28.65 24.575C28.4167 25.225 28.1 25.8 27.7 26.3L34 32.6L32.6 34ZM22.5 27C23.75 27 24.8127 26.5627 25.688 25.688C26.5627 24.8127 27 23.75 27 22.5C27 21.25 26.5627 20.1873 25.688 19.312C24.8127 18.4373 23.75 18 22.5 18C21.25 18 20.1873 18.4373 19.312 19.312C18.4373 20.1873 18 21.25 18 22.5C18 23.75 18.4373 24.8127 19.312 25.688C20.1873 26.5627 21.25 27 22.5 27Z" fill="black"/>
</g>
</svg>
