<svg width="90" height="41" viewBox="0 0 90 41" fill="none" xmlns="http://www.w3.org/2000/svg">
<path d="M71.8362 32.3273C71.8362 32.6565 71.8628 32.9769 71.9029 33.2928C72.3789 37.0752 75.601 40.0033 79.5123 40.0033C83.5263 40.0033 86.8192 36.9151 87.1531 32.9812C87.1709 32.7675 87.1842 32.5498 87.1842 32.3273C87.1842 28.0908 83.7488 24.6555 79.5123 24.6555C75.2716 24.6555 71.8362 28.0908 71.8362 32.3273ZM84.2739 31.6775H82.0666C82.0043 31.4371 81.9109 31.2101 81.7908 31.0011L83.3527 29.4347C83.8379 30.0798 84.1581 30.841 84.2739 31.6775ZM83.3527 35.2464L81.7775 33.6708C81.902 33.4617 82.0045 33.2439 82.0666 33.0035H84.2693C84.1538 33.8356 83.8379 34.6055 83.3527 35.2464ZM80.1756 34.8813C80.4115 34.8191 80.6338 34.7299 80.8387 34.61L82.4006 36.1719C81.7598 36.6526 81.0079 36.9774 80.1758 37.0928V34.8813H80.1756ZM80.1756 27.5655C81.012 27.6816 81.7731 28.0061 82.4184 28.4956L80.8521 30.0579C80.6428 29.9332 80.4158 29.8396 80.1756 29.7774V27.5655ZM75.6677 29.4349L77.2341 31.0013C77.1096 31.2103 77.016 31.4373 76.9536 31.6777H74.7464C74.8621 30.841 75.1827 30.0798 75.6677 29.4349ZM78.8449 29.7774C78.6046 29.8396 78.3775 29.933 78.1685 30.0579L76.6021 28.4956C77.2474 28.0061 78.0082 27.6857 78.8449 27.5655V29.7774ZM76.6199 36.1719L78.1773 34.61C78.3822 34.7299 78.6091 34.8191 78.8449 34.8813V37.0928C78.0174 36.9772 77.2564 36.6526 76.6199 36.1719ZM74.7419 33.0035H76.9626C77.0249 33.2394 77.1182 33.4662 77.2384 33.6708L75.672 35.2372C75.187 34.6009 74.8578 33.8356 74.7419 33.0035Z" fill="#5D5D5F"/>
<path d="M8.38394 32.3273C8.38394 32.6565 8.41111 32.9769 8.45122 33.2928C8.92724 37.0752 12.1491 40.0033 16.0561 40.0033C20.0744 40.0033 23.3675 36.9151 23.7012 32.9812C23.719 32.7675 23.7323 32.5498 23.7323 32.3273C23.7323 28.0908 20.2969 24.6555 16.0605 24.6555C11.8199 24.6555 8.38394 28.0908 8.38394 32.3273ZM20.8221 31.6775H18.6149C18.5526 31.4371 18.4591 31.2101 18.3389 31.0011L19.9008 29.4347C20.386 30.0798 20.7064 30.841 20.8221 31.6775ZM19.901 35.2464L18.3258 33.6708C18.4504 33.4617 18.5528 33.2439 18.615 33.0035H20.8177C20.7019 33.8356 20.386 34.6055 19.901 35.2464ZM16.7237 34.8813C16.9596 34.8191 17.1821 34.7299 17.3869 34.61L18.9489 36.1719C18.3079 36.6526 17.5515 36.9774 16.7194 37.0928V34.8813H16.7237V34.8813ZM16.7237 27.5655C17.5603 27.6816 18.3213 28.0061 18.9621 28.4956L17.4 30.0579C17.1909 29.9332 16.9639 29.8396 16.7193 29.7774V27.5655H16.7237ZM12.2115 29.4349L13.7824 31.0013C13.6577 31.2103 13.5643 31.4373 13.5021 31.6777H11.2947C11.4104 30.841 11.7308 30.0798 12.2115 29.4349ZM15.3932 29.7774C15.153 29.8396 14.926 29.933 14.7168 30.0579L13.1504 28.4956C13.7955 28.0061 14.5565 27.6857 15.393 27.5655V29.7774H15.3932ZM13.1682 36.1719L14.7256 34.61C14.9303 34.7299 15.1572 34.8191 15.393 34.8813V37.0928C14.561 36.9772 13.8045 36.6526 13.1682 36.1719ZM11.2859 33.0035H13.5107C13.5732 33.2394 13.6665 33.4662 13.7867 33.6708L12.2158 35.2372C11.7353 34.6009 11.4059 33.8356 11.2859 33.0035Z" fill="#5D5D5F"/>
<path d="M0.556529 34.0936L6.70749 33.9959C6.67979 33.8403 6.64453 33.6843 6.62636 33.524C6.56969 33.0926 6.54234 32.7008 6.54234 32.3273C6.54234 27.0807 10.8098 22.8133 16.0564 22.8133C21.3073 22.8133 25.5747 27.0852 25.5747 32.3273C25.5747 32.6031 25.5569 32.8703 25.5346 33.1414C25.5168 33.3283 25.4856 33.5152 25.459 33.7021L70.0251 33.0036C70.0073 32.772 69.9985 32.545 69.9985 32.3315C69.9985 27.0852 74.2661 22.8133 79.5125 22.8133C84.2917 22.8133 88.2479 26.3597 88.9153 30.9612C89.4495 29.7907 89.9611 28.1977 89.7609 26.6358C89.3825 23.6675 86.7927 20.7839 86.6414 19.3333C86.4856 17.8837 87.1264 16.6956 86.7438 14.6387C86.3643 12.5828 82.7966 5.80106 79.1788 3.49708C76.5533 1.82833 74.662 0.689022 66.6833 0.230817C55.4471 -0.415564 47.7355 0.319867 40.9626 2.379C36.9354 3.60376 23.154 10.7704 18.9754 13.0867C14.0271 15.8267 12.0291 16.2495 8.61209 17.4865C4.66455 18.9206 2.15512 22.0568 1.16621 24.4285C0.173702 26.8003 -0.550396 29.7549 0.556529 34.0936ZM63.7684 13.0332L62.5891 3.01081C69.1305 3.12325 75.9212 3.63938 76.5175 5.92897C76.869 7.29279 75.0803 10.5348 72.9397 11.4879C71.2846 12.228 68.7167 12.5027 63.7684 13.0332ZM31.8402 11.5503L32.5877 9.36524C41.4386 4.61282 45.9554 2.97627 56.9244 2.97627H58.4775L57.2182 13.665C45.7105 14.6829 32.1293 15.5184 32.1293 15.5184C33.224 13.2779 31.8402 11.5503 31.8402 11.5503Z" fill="#5D5D5F"/>
</svg>
