<svg width="100" height="40" viewBox="0 0 100 40" fill="none" xmlns="http://www.w3.org/2000/svg">
<path d="M77.3153 31.0563C77.3153 31.434 77.3501 31.812 77.3945 32.1798C77.9533 36.5906 81.7407 40 86.3343 40C91.0559 40 94.9222 36.3989 95.3132 31.817C95.333 31.5664 95.3524 31.3111 95.3524 31.0516C95.3524 26.1109 91.3181 22.1027 86.3343 22.1027C81.3549 22.1073 77.3153 26.1109 77.3153 31.0563ZM91.9311 30.2959H89.3403C89.2661 30.0109 89.1573 29.7513 89.0137 29.506L90.8529 27.681C91.4219 28.4316 91.7973 29.3197 91.9311 30.2959ZM90.8481 34.4562L88.9989 32.6213C89.1425 32.376 89.2611 32.121 89.3353 31.8462H91.9263C91.7873 32.8126 91.4219 33.7106 90.8481 34.4562ZM87.1151 34.0296C87.3921 33.9607 87.6539 33.8527 87.8963 33.7154L89.7309 35.5356C88.9789 36.1002 88.0891 36.4775 87.1151 36.61V34.0296ZM87.1151 25.5024C88.0991 25.6398 88.9941 26.0178 89.7507 26.5868L87.9111 28.407C87.6645 28.2647 87.4019 28.152 87.1153 28.0785L87.1151 25.5024ZM81.8199 27.6808L83.6589 29.5058C83.5157 29.7511 83.4021 30.0111 83.3327 30.2957H80.7369C80.8705 29.3197 81.2461 28.4316 81.8199 27.6808ZM85.5531 28.0783C85.2713 28.1518 85.0043 28.2645 84.7573 28.4068L82.9227 26.5866C83.6741 26.0176 84.5743 25.6398 85.5533 25.5022V28.0783H85.5531ZM82.9373 35.5354L84.7719 33.7152C85.0091 33.8575 85.2761 33.9605 85.5529 34.0294V36.6099C84.5789 36.4775 83.6887 36.0998 82.9373 35.5354ZM80.7271 31.8462H83.3377C83.4119 32.121 83.5207 32.3808 83.6639 32.6213L81.8249 34.4513C81.2511 33.7005 80.8653 32.8126 80.7271 31.8462Z" fill="#D82930"/>
<path d="M10.5565 31.0563C10.5565 31.434 10.5909 31.812 10.6405 32.1798C11.1941 36.5906 14.9819 40 19.5751 40C24.2971 40 28.1631 36.3989 28.5539 31.817C28.5737 31.5664 28.5937 31.3111 28.5937 31.0516C28.5937 26.1109 24.5589 22.1027 19.5751 22.1027C14.5961 22.1073 10.5565 26.1109 10.5565 31.0563ZM25.1719 30.2959H22.5811C22.5073 30.0109 22.3981 29.7513 22.2549 29.506L24.0943 27.681C24.6627 28.4316 25.0385 29.3197 25.1719 30.2959ZM24.0945 34.4562L22.2451 32.6213C22.3883 32.376 22.5019 32.121 22.5763 31.8462H25.1671C25.0337 32.8126 24.6627 33.7106 24.0945 34.4562ZM20.3563 34.0296C20.6329 33.9607 20.8999 33.8527 21.1375 33.7154L22.9717 35.5356C22.2199 36.1002 21.3353 36.4775 20.3563 36.61V34.0296V34.0296ZM20.3563 25.5024C21.3403 25.6398 22.2353 26.0178 22.9915 26.5868L21.1523 28.407C20.9051 28.2647 20.6427 28.152 20.3565 28.0785L20.3563 25.5024ZM15.0607 27.6808L16.9001 29.5058C16.7569 29.7511 16.6429 30.0111 16.5739 30.2957H13.9831C14.1117 29.3197 14.4919 28.4316 15.0607 27.6808ZM18.7939 28.0783C18.5119 28.1518 18.2449 28.2645 17.9979 28.4068L16.1637 26.5866C16.9199 26.0176 17.8149 25.6398 18.7989 25.5022V28.0779L18.7939 28.0783ZM16.1785 35.5354L18.0127 33.7152C18.2547 33.8575 18.5169 33.9605 18.7939 34.0294V36.6099C17.8197 36.4775 16.9295 36.0998 16.1785 35.5354ZM13.9729 31.8462H16.5837C16.6577 32.121 16.7667 32.3808 16.9101 32.6213L15.0655 34.4513C14.4967 33.7005 14.1065 32.8126 13.9729 31.8462Z" fill="#D82930"/>
<path d="M0.0449885 26.3413L1.06818 31.846C1.30078 33.0922 2.39798 34 3.67378 34H8.85576C8.71716 33.4945 8.59836 32.9793 8.53396 32.4494C8.46516 31.9442 8.43556 31.4879 8.43556 31.0561C8.43556 24.9578 13.4341 19.9975 19.5751 19.9975C25.7209 19.9975 30.7195 24.9578 30.7195 31.0561C30.7195 31.3699 30.6999 31.684 30.6703 31.998C30.6109 32.6848 30.4873 33.352 30.3043 33.9996H75.6145C75.4763 33.4943 75.3577 32.9791 75.2933 32.4491C75.2291 31.9438 75.1945 31.4875 75.1945 31.0557C75.1945 24.9626 80.1935 20.0029 86.3345 20.0029C92.4787 20.0029 97.479 24.9626 97.479 31.0557C97.479 31.3746 97.4592 31.6838 97.4294 31.9978C97.3704 32.6846 97.2468 33.357 97.0638 33.9994H98.379C98.379 33.9994 100.619 26.8564 99.8328 23.6086C99.2144 21.0819 97.6426 20.0521 97.6426 20.0521C97.6426 20.0521 97.7906 16.3382 95.7784 12.5009C95.3483 11.6869 92.0257 7.19647 87.0221 2.72294C84.7371 0.677483 82.9377 0.039654 79.8571 0.0340973C71.1401 0.0108782 51.096 -0.0343692 46.359 0.0446152C43.2094 0.0936331 41.3998 0.579447 38.6655 2.19863C38.3939 2.36037 38.2503 2.66975 38.3293 2.97359C38.4085 3.27226 38.6855 3.48322 39.0016 3.48322H39.1798L30.3339 12.0743C30.3339 12.0743 26.8381 12.0937 25.6767 12.138C19.8865 12.3777 9.47875 13.2271 3.16438 18.0009C2.31418 18.6442 1.76018 19.5996 1.62198 20.65C1.44898 22.0187 1.41918 23.5349 1.41918 23.5349C0.390587 24.07 -0.168211 25.2081 0.0449885 26.3413ZM72.6827 3.48302H81.8199C82.8137 3.48302 83.7731 3.81245 84.5543 4.41515C86.6947 6.07402 88.3713 7.8992 89.6169 9.50845C89.8741 9.83709 89.9189 10.2741 89.7359 10.6458C89.5529 11.0137 89.1771 11.2546 88.7619 11.2604L72.6827 11.485V3.48302ZM67.8121 3.48302H68.4353V11.5438L67.8121 11.5543V3.48302ZM34.9521 12.01L43.7286 3.48302H63.5654V11.6083L42.532 11.9018C42.542 11.7988 42.5566 11.7008 42.5566 11.5926C42.5566 10.1951 41.553 9.06233 40.3118 9.06233C39.0706 9.06233 38.0621 10.1951 38.0621 11.5926C38.0621 11.7208 38.0767 11.844 38.0969 11.9655L34.9521 12.01Z" fill="#D82930"/>
</svg>
